<?xml version="1.0" encoding="UTF-8"?>
<svg id="Ebene_1" xmlns="http://www.w3.org/2000/svg" version="1.1" viewBox="0 0 500 500">
  <!-- Generator: Adobe Illustrator 29.3.1, SVG Export Plug-In . SVG Version: 2.1.0 Build 151)  -->
  <defs>
    <style>
      .st0 {
        display: none;
      }
    </style>
  </defs>
  <rect class="st0" width="500.7" height="500.7"/>
  <g>
    <path d="M137.3,187.7h-18.2v41.2c0,6-6.7,10.8-14.9,10.8s-14.9-4.8-14.9-10.8h-18c0,1.5,0,1.5,0,2.6,0,6,3.3,11.5,8.7,15.6,4.5,3.4,10.1,5.2,15.8,5.2h16.9c6.7,0,13.2-2.4,18.1-7,4-3.8,6.4-8.6,6.6-13.7q0-1.3,0-2.6h0v-41.2Z"/>
    <path d="M195.9,252.3h18l-28.4-64.7h-20.1l-28.4,64.7h18l5.6-12.7h29.7l5.6,12.7ZM166.4,226.8l9.2-20.9,9.2,20.9h-18.3Z"/>
    <path d="M265.5,228.4c-2.4,6.4-7.9,10.9-14.3,10.9h-6.9c-8.7,0-15.7-8.2-15.7-18.4v-3.1c0-10.2,7-18.4,15.7-18.4h6.9c6.2,0,11.6,4.3,14.1,10.5l19.2-.8c-3.4-13.2-15.4-23-29.6-23h-13.5c-16.9,0-30.6,13.7-30.6,30.6v5.1c0,16.9,13.7,30.6,30.6,30.6h13.5c14.3,0,26.3-9.8,29.6-23l-19-1Z"/>
    <path d="M329,186h-12.1c-16.2,0-29.4,13.7-29.4,30.6v5.1c0,16.9,13.2,30.6,29.4,30.6h12.1c16.2,0,29.4-13.7,29.4-30.6v-5.1c0-16.9-13.2-30.6-29.4-30.6ZM341.3,220.9c0,10.2-6.7,18.4-15.1,18.4h-6.5c-8.3,0-15.1-8.2-15.1-18.4v-3.1c0-10.2,6.7-18.4,15.1-18.4h6.5c8.3,0,15.1,8.2,15.1,18.4v3.1Z"/>
    <path d="M428.8,230.4c0-3.2-3.7-8.3-8.3-11.8,4.2-3,7.4-7.1,7.4-9.4v-7c0-10.1-16-14-28.5-14h-36.9v64.2h41.9c12.5,0,24.4-3.3,24.4-16.1M410.3,233.6c0,.9-.3,1.7-.9,2.4-1.3,1.6-4.2,2.6-6.1,2.6h-22.5v-12.6h22.5c1.8,0,4.7,1,6.1,2.6.6.7.9,1.5.9,2.4v2.6ZM410.3,208.5c0,.7-.3,1.4-.9,1.9-1.3,1.3-4.2,2.2-6.1,2.2h-22.5v-10.3h22.5c1.8,0,4.7.8,6.1,2.2.6.5.9,1.2.9,1.9v2.2Z"/>
    <polygon points="131.8 261.6 125.6 261.6 119.1 261.6 104.8 296.6 89.8 261.6 83.6 261.6 75.1 261.6 71.2 261.6 71.2 314 83.6 314 83.6 279 99 310.7 110.8 310.7 110.7 310.6 110.8 310.6 125.6 276.1 125.6 314 138 314 138 261.6 131.8 261.6"/>
    <polygon points="157.2 302.8 157.2 291.8 179.7 291.8 179.7 280.7 157.2 280.7 157.2 272.8 189.3 272.8 189.3 261.6 157.2 261.6 142.5 261.6 142.5 272.8 142.5 280.7 142.5 291.8 142.5 302.8 142.5 308.4 142.5 314 190.5 314 190.5 302.8 157.2 302.8"/>
    <polygon points="329.9 302.8 329.9 291.8 352.4 291.8 352.4 280.7 329.9 280.7 329.9 272.8 362 272.8 362 261.6 329.9 261.6 315.2 261.6 315.2 272.8 315.2 280.7 315.2 291.8 315.2 302.8 315.2 308.4 315.2 314 363.2 314 363.2 302.8 329.9 302.8"/>
    <path d="M227.1,261.6h-32v52.3h32c13.3,0,24-10.7,24-24v-4.3c0-13.3-10.7-24-24-24ZM236.6,288.7c0,7.5-5.1,13.6-11.5,13.6h-15.3v-29.6h15.3c6.3,0,11.5,6.1,11.5,13.6v2.5Z"/>
    <path d="M310.3,313.6l-15.5-19c8.5-2.5,14.3-8.4,14.3-14.6v-2.8c0-8.6-11.6-15.5-24.8-15.5h-29.4v52.3h14.7v-18.5h9.7l13.4,18.2h17.5ZM269.6,272.4h10.4c6.3,0,13.9.3,13.9,5.1v1.6c0,4.8-7.6,5-13.9,5h-10.4v-11.7Z"/>
    <path d="M414.2,314h14.6l-23-52.3h-16.2l-23,52.3h14.6l4.5-10.2h24l4.5,10.2ZM390.3,293.3l7.4-16.9,7.4,16.9h-14.8Z"/>
  </g>
</svg>