<?xml version="1.0" encoding="UTF-8"?>
<svg id="Ebene_1" xmlns="http://www.w3.org/2000/svg" version="1.1" viewBox="0 0 450 216.5">
  <!-- Generator: Adobe Illustrator 29.3.1, SVG Export Plug-In . SVG Version: 2.1.0 Build 151)  -->
  <defs>
    <style>
      .st0 {
        fill: #fff;
      }
    </style>
  </defs>
  <path class="st0" d="M83.2,29.8h-22.9v51.9c0,7.6-8.4,13.6-18.8,13.6s-18.8-6-18.8-13.6H0c0,1.8,0,1.9,0,3.3,0,7.6,4.1,14.5,10.9,19.6,5.7,4.3,12.7,6.5,19.9,6.5h21.2c8.4,0,16.6-3.1,22.7-8.9,5.1-4.8,8.1-10.8,8.3-17.3q0-1.6,0-3.3h0V29.8Z"/>
  <path class="st0" d="M156.9,111.2h22.7l-35.7-81.4h-25.2l-35.7,81.4h22.7l7-15.9h37.3l7,15.9ZM119.8,79l11.5-26.3,11.5,26.3h-23.1Z"/>
  <path class="st0" d="M244.5,81c-3.1,8.1-10,13.7-18,13.7h-8.7c-10.9,0-19.7-10.4-19.7-23.2v-3.9c0-12.8,8.8-23.2,19.7-23.2h8.7c7.8,0,14.6,5.4,17.8,13.2l24.1-1c-4.2-16.6-19.3-29-37.3-29h-17c-21.3,0-38.5,17.2-38.5,38.5v6.4c0,21.3,17.2,38.5,38.5,38.5h17c18,0,33-12.3,37.3-28.9l-23.9-1.2Z"/>
  <path class="st0" d="M324.4,27.8h-15.2c-20.4,0-37,17.2-37,38.5v6.4c0,21.3,16.6,38.5,37,38.5h15.2c20.4,0,37-17.2,37-38.5v-6.4c0-21.3-16.6-38.5-37-38.5ZM339.8,71.6c0,12.8-8.5,23.2-19,23.2h-8.2c-10.5,0-19-10.4-19-23.2v-3.9c0-12.8,8.5-23.2,19-23.2h8.2c10.5,0,19,10.4,19,23.2v3.9Z"/>
  <path class="st0" d="M450,83.5c0-4-4.6-10.5-10.5-14.8,5.3-3.8,9.3-9,9.3-11.8v-8.9c0-12.7-20.1-17.6-35.9-17.6h-46.5v80.8h52.7c15.8,0,30.7-4.1,30.7-20.3M426.7,87.7c0,1.1-.4,2.1-1.1,3-1.7,2-5.3,3.3-7.6,3.3h-28.4v-15.8h28.4c2.3,0,6,1.3,7.6,3.3.7.8,1.1,1.9,1.1,3v3.3ZM426.7,56c0,.9-.4,1.7-1.1,2.4-1.7,1.6-5.3,2.7-7.6,2.7h-28.4v-13h28.4c2.3,0,6,1.1,7.6,2.7.7.7,1.1,1.5,1.1,2.4v2.7Z"/>
  <polygon class="st0" points="76.3 122.9 68.5 122.9 60.3 122.9 42.3 166.9 23.4 122.9 15.6 122.9 4.9 122.9 0 122.9 0 188.7 15.6 188.7 15.6 144.8 35.1 184.6 49.8 184.6 49.8 184.5 49.8 184.5 68.5 141.1 68.5 188.7 84.1 188.7 84.1 122.9 76.3 122.9"/>
  <polygon class="st0" points="108.3 174.7 108.3 160.9 136.5 160.9 136.5 146.8 108.3 146.8 108.3 136.9 148.6 136.9 148.6 122.9 108.3 122.9 89.7 122.9 89.7 136.9 89.7 146.8 89.7 160.9 89.7 174.7 89.7 181.8 89.7 188.7 150.2 188.7 150.2 174.7 108.3 174.7"/>
  <polygon class="st0" points="325.5 174.7 325.5 160.9 353.8 160.9 353.8 146.8 325.5 146.8 325.5 136.9 365.9 136.9 365.9 122.9 325.5 122.9 307 122.9 307 136.9 307 146.8 307 160.9 307 174.7 307 181.8 307 188.7 367.5 188.7 367.5 174.7 325.5 174.7"/>
  <path class="st0" d="M196.2,122.9h-40.3v65.9h40.3c16.7,0,30.2-13.5,30.2-30.2v-5.5c0-16.7-13.5-30.2-30.2-30.2ZM208.2,156.9c0,9.4-6.5,17.1-14.4,17.1h-19.2v-37.2h19.2c8,0,14.4,7.6,14.4,17.1v3.1Z"/>
  <path class="st0" d="M300.8,188.3l-19.5-24c10.6-3.1,18-10.5,18-18.4v-3.5c0-10.8-14.6-19.5-31.1-19.5h-37v65.9h18.5v-23.3h12.2l16.9,22.9h22ZM249.7,136.4h13.1c7.9,0,17.5.4,17.5,6.5v2c0,6.1-9.6,6.3-17.5,6.3h-13.1v-14.8Z"/>
  <path class="st0" d="M431.7,188.7h18.3l-28.9-65.9h-20.4l-28.9,65.9h18.3l5.7-12.9h30.2l5.7,12.9ZM401.6,162.7l9.3-21.3,9.3,21.3h-18.7Z"/>
</svg>