<?xml version="1.0" encoding="UTF-8"?>
<svg id="Ebene_1" xmlns="http://www.w3.org/2000/svg" version="1.1" viewBox="0 0 3600 1280">
  <!-- Generator: Adobe Illustrator 29.3.1, SVG Export Plug-In . SVG Version: 2.1.0 Build 151)  -->
  <defs>
    <style>
      .st0 {
        fill: none;
      }
    </style>
  </defs>
  <path d="M676.3,1h-186.5v422.2c0,61.5-68.7,110.7-152.7,110.7s-152.7-49.2-152.7-110.7H0v26.6c0,61.5,33.8,117.8,89.2,159.9,46.1,34.8,103.5,53.3,161.9,53.3h173.2c68.7,0,135.3-24.6,185.5-71.7,41-38.9,65.6-88.1,67.6-140.4v-26.6h0V2l-1-1Z"/>
  <path d="M1263.7,663h184.2L1157.3,1h-205.7l-290.6,662h184.2l57.3-129.9h303.9l57.3,129.9h0ZM961.9,402.1l94.1-213.8,94.1,213.8h-188.3Z"/>
  <path d="M1955,424c-24,64-79,109-143,109h-69c-87,0-157-82-157-184v-31c0-102,70-184,157-184h69c62,0,116,43,141,105l192-8C2111,99,1991,1,1849,1h-135c-169,0-306,137-306,306v51c0,169,137,306,306,306h135c143,0,263-98,296-230l-190-10h0Z"/>
  <path d="M2590,0h-121c-162,0-294,137-294,306v51c0,169,132,306,294,306h121c162,0,294-137,294-306v-51c0-169-132-306-294-306ZM2713,349c0,102-67,184-151,184h-65c-83,0-151-82-151-184v-31c0-102,67-184,151-184h65c83,0,151,82,151,184v31Z"/>
  <path d="M3600,436.8c0-33-38.2-85.7-85.7-121.9,43.4-31,76.4-73.3,76.4-97.1v-72.3c0-104.3-165.2-144.6-294.3-144.6h-381.1v663h432.7c129.1,0,252-34.1,252-166.3M3408.9,469.9c0,9.3-3.1,17.6-9.3,24.8-13.4,16.5-43.4,26.9-63,26.9h-232.4v-130.1h232.4c18.6,0,48.5,10.3,63,26.9,6.2,7.2,9.3,15.5,9.3,24.8v26.9ZM3408.9,210.6c0,7.2-3.1,14.5-9.3,19.6-13.4,13.4-43.4,22.7-63,22.7h-232.4v-106.4h232.4c18.6,0,48.5,8.3,63,22.7,6.2,5.2,9.3,12.4,9.3,19.6v22.7-1Z"/>
  <polygon points="606 756 544 756 479 756 336 1106 186 756 124 756 39 756 0 756 0 1280 124 1280 124 930 278 1247 396 1247 395 1246 396 1246 544 901 544 1280 668 1280 668 756 606 756"/>
  <polygon points="872 1168 872 1058 1097 1058 1097 947 872 947 872 868 1193 868 1193 756 872 756 725 756 725 868 725 947 725 1058 725 1168 725 1224 725 1280 1205 1280 1205 1168 872 1168"/>
  <polygon points="2599 1168 2599 1058 2824 1058 2824 947 2599 947 2599 868 2920 868 2920 756 2599 756 2452 756 2452 868 2452 947 2452 1058 2452 1168 2452 1224 2452 1280 2932 1280 2932 1168 2599 1168"/>
  <path d="M1571,756h-320v523h320c133,0,240-107,240-240v-43c0-133-107-240-240-240ZM1666,1027c0,75-51,136-115,136h-153v-296h153c63,0,115,61,115,136v25-1Z"/>
  <path d="M2403,1276l-155-190c85-25,143-84,143-146v-28c0-86-116-155-248-155h-294v523h147v-185h97l134,182h175l1-1ZM1996,864h104c63,0,139,3,139,51v16c0,48-76,50-139,50h-104v-117Z"/>
  <path d="M3454,1280h146l-230-523h-162l-230,523h146l45-102h240l45,102ZM3215,1073l74-169,74,169h-148Z"/>
  <line class="st0" x1="5663.9" y1="-4335.8" x2="5709.4" y2="-5357.6"/>
  <line class="st0" x1="9549.4" y1="-3255.4" x2="9640.5" y2="-3320.5"/>
</svg>